<svg width="10" height="10" viewBox="0 0 10 10" fill="none" xmlns="http://www.w3.org/2000/svg">
<path d="M8.19339 4.21234H5.61598V1.37443C5.61598 0.852024 5.2313 0.428467 4.75684 0.428467C4.28238 0.428467 3.8977 0.852024 3.8977 1.37443V4.21234H1.32029C0.84583 4.21234 0.461151 4.63589 0.461151 5.1583C0.461151 5.68071 0.84583 6.10427 1.32029 6.10427H3.8977V8.94217C3.8977 9.46458 4.28238 9.88814 4.75684 9.88814C5.2313 9.88814 5.61598 9.46458 5.61598 8.94217V6.10427H8.19339C8.66785 6.10427 9.05253 5.68071 9.05253 5.1583C9.05253 4.63589 8.66785 4.21234 8.19339 4.21234Z" fill="#AF2060"/>
</svg>
